<svg width="216" height="54" viewBox="0 0 216 54" fill="none" xmlns="http://www.w3.org/2000/svg">
<path d="M0.336003 21.837C0.473334 19.9019 1.33932 18.0878 2.76326 16.7524C4.18721 15.417 6.0658 14.657 8.02873 14.6224C12.5922 14.5795 16.0691 18.5089 15.946 23.0466C15.8591 25.5087 15.8591 27.842 15.946 30.3041C16.1561 35.0637 12.5053 39.2508 7.73176 39.2937C5.84288 39.3578 4.00096 38.7043 2.58487 37.4675C1.16878 36.2307 0.286207 34.5047 0.118703 32.6445C-0.0936534 29.0419 -0.0210052 25.4284 0.336003 21.837Z" fill="white"/>
<path d="M21.6465 7.15733C22.3709 2.2331 25.5146 1.22176e-05 29.6145 1.22176e-05C30.7269 -0.0018915 31.8282 0.218699 32.852 0.648469C33.8758 1.07824 34.801 1.70832 35.5719 2.50075C36.3427 3.29318 36.9433 4.23156 37.3374 5.2594C37.7315 6.28724 37.9109 7.38327 37.865 8.48146C37.3942 21.5579 37.4376 31.8143 37.9954 45.406C38.162 50.0368 34.2359 54.1666 29.9115 53.9948C26.9634 53.8588 23.653 52.5061 22.4506 49.1422C19.5024 40.761 20.6252 13.9496 21.6465 7.15733Z" fill="white"/>
<path d="M42.7113 21.0566C42.9934 19.2697 43.9099 17.6402 45.2968 16.46C46.6838 15.2798 48.4505 14.6258 50.2809 14.6151C55.1414 14.5721 58.756 18.9095 58.6256 23.7335C58.5386 25.9076 58.5821 28.0848 58.7559 30.2538C59.0529 35.0134 55.4456 39.2005 50.672 39.2864C48.7806 39.3093 46.944 38.6587 45.4982 37.4536C44.0524 36.2484 43.0939 34.5692 42.7982 32.7231C42.099 28.8674 42.0696 24.9221 42.7113 21.0566Z" fill="white"/>
<path d="M70.2515 19.2465C71.2866 19.206 72.319 19.378 73.2834 19.7518C74.2478 20.1256 75.1232 20.6929 75.8543 21.4181C76.5854 22.1432 77.1564 23.0103 77.5311 23.9645C77.9058 24.9188 78.0761 25.9395 78.0312 26.9621C78.0312 31.6287 74.8223 34.6705 70.2515 34.6705C66.2965 34.6705 63.218 31.8076 63.2687 26.9621C63.3194 22.1166 66.2965 19.2465 70.2515 19.2465Z" fill="white"/>
<path d="M100.798 39.8587C98.5734 39.8771 96.3713 39.418 94.3439 38.5131C92.3878 37.6369 90.6754 36.3059 89.353 34.6338L92.9024 30.0317C93.847 31.2276 95.0563 32.1938 96.4375 32.8563C97.8187 33.5188 99.335 33.86 100.87 33.8537C101.845 33.8974 102.81 33.6478 103.637 33.1379C103.964 32.9399 104.234 32.662 104.42 32.3311C104.607 32.0001 104.704 31.6272 104.702 31.2484C104.702 30.182 103.862 29.2802 102.174 28.5573L99.5738 27.6197C98.2909 27.1618 97.0378 26.6264 95.8216 26.0164C92.6923 24.3273 91.1277 21.8985 91.1277 18.7302C91.1078 17.5473 91.3578 16.375 91.8595 15.3007C92.3611 14.2264 93.1014 13.2776 94.0252 12.5249C95.9568 10.8882 98.4583 10.0699 101.53 10.0699C105.212 10.0004 108.772 11.3746 111.432 13.8919L108.194 18.6873C107.295 17.8725 106.244 17.2381 105.101 16.8192C103.99 16.3666 102.803 16.1238 101.602 16.1035C100.708 16.0521 99.8203 16.2745 99.0595 16.7405C98.7682 16.9288 98.5302 17.1873 98.368 17.4916C98.2058 17.7958 98.1247 18.1359 98.1323 18.4797C98.1323 19.4675 98.9219 20.312 100.501 21.0134L103.29 22.1515C105.05 22.8672 106.187 23.2823 106.644 23.5185C110.145 25.0788 111.895 27.5218 111.895 30.8476C111.927 32.0894 111.665 33.3213 111.13 34.4456C110.596 35.57 109.804 36.5558 108.817 37.325C106.784 39.0141 104.111 39.8587 100.798 39.8587Z" fill="white"/>
<path d="M128.15 17.4354C129.584 17.405 131.008 17.683 132.322 18.2503C133.637 18.8176 134.811 19.6605 135.763 20.7206C137.774 22.8671 138.858 25.7049 138.783 28.6294C138.846 31.5781 137.76 34.4378 135.748 36.617C134.805 37.678 133.638 38.5215 132.329 39.0879C131.019 39.6543 129.6 39.9298 128.171 39.895C126.952 39.9179 125.741 39.6869 124.618 39.2171C123.495 38.7473 122.484 38.0491 121.652 37.1681V48.1618H115.452V17.9793H121.573V20.3556C122.384 19.4205 123.394 18.6739 124.531 18.1691C125.668 17.6643 126.903 17.4138 128.15 17.4354ZM132.496 28.6652C132.515 27.9408 132.388 27.22 132.123 26.5443C131.858 25.8687 131.461 25.2515 130.953 24.7287C130.443 24.2101 129.832 23.7979 129.158 23.5165C128.484 23.235 127.759 23.09 127.027 23.09C126.295 23.09 125.57 23.235 124.896 23.5165C124.222 23.7979 123.611 24.2101 123.101 24.7287C122.596 25.253 122.2 25.8706 121.937 26.546C121.673 27.2214 121.547 27.9415 121.565 28.6652C121.524 30.1444 122.076 31.5799 123.101 32.659C123.598 33.1892 124.205 33.6083 124.879 33.8885C125.554 34.1687 126.281 34.3034 127.012 34.2837C127.746 34.3023 128.475 34.167 129.152 33.887C129.828 33.607 130.437 33.1884 130.939 32.659C131.451 32.1271 131.851 31.5005 132.117 30.815C132.383 30.1296 132.509 29.399 132.489 28.6652H132.496Z" fill="white"/>
<path d="M163.745 28.1569C163.728 29.0187 163.662 29.8789 163.549 30.7335H147.613C148.352 33.4104 150.313 34.7488 153.495 34.7488C155.906 34.753 158.261 34.0315 160.246 32.6803L162.694 36.853C159.975 38.8503 156.658 39.8932 153.271 39.8162C149.456 39.8162 146.522 38.7378 144.469 36.5811C142.441 34.426 141.349 31.5711 141.427 28.6293C141.383 27.156 141.639 25.6891 142.181 24.3157C142.722 22.9423 143.537 21.6904 144.578 20.6346C146.659 18.5017 149.41 17.4352 152.829 17.4352C155.725 17.3326 158.546 18.3611 160.681 20.2982C162.728 22.2354 163.75 24.855 163.745 28.1569ZM156.03 23.4402C155.116 22.7286 153.978 22.3564 152.814 22.3881C151.616 22.357 150.444 22.7352 149.495 23.4588C148.546 24.1824 147.879 25.2073 147.606 26.3604H157.783C157.557 25.2164 156.938 24.1847 156.03 23.4402Z" fill="white"/>
<path d="M183.636 20.2406V17.9788H189.489V39.3291H183.643V37.1819C182.778 38.0626 181.74 38.7589 180.593 39.2279C179.446 39.6969 178.213 39.9286 176.972 39.9089C175.535 39.9442 174.108 39.6735 172.787 39.1152C171.466 38.557 170.282 37.7243 169.315 36.6737C167.287 34.4523 166.209 31.5404 166.309 28.5502C166.22 25.6045 167.314 22.7436 169.351 20.5913C170.322 19.5631 171.503 18.75 172.815 18.2059C174.127 17.6619 175.542 17.399 176.964 17.4349C178.213 17.4179 179.451 17.6587 180.6 18.1418C181.749 18.625 182.783 19.3398 183.636 20.2406ZM172.51 28.6289C172.474 30.1243 173.024 31.5756 174.045 32.68C174.557 33.2121 175.176 33.6328 175.862 33.915C176.548 34.1972 177.286 34.3348 178.029 34.319C178.777 34.3381 179.52 34.1985 180.209 33.9096C180.897 33.6207 181.515 33.1891 182.02 32.6442C183.069 31.5656 183.649 30.1244 183.636 28.6289C183.647 27.8929 183.51 27.1621 183.232 26.479C182.955 25.7958 182.543 25.1739 182.02 24.6495C181.498 24.131 180.877 23.7195 180.194 23.4388C179.51 23.158 178.777 23.0135 178.037 23.0135C177.296 23.0135 176.563 23.158 175.879 23.4388C175.196 23.7195 174.575 24.131 174.053 24.6495C173.029 25.7243 172.475 27.1537 172.51 28.6289Z" fill="white"/>
<path d="M216 39.33H208.503L201.672 30.4764L200.448 31.6073V39.33H194.255V9.67725H200.448V24.8078L207.692 17.9797H215.348L205.874 26.6759L216 39.33Z" fill="white"/>
</svg>
